<svg id="visual" viewBox="0 0 960 100" width="960" height="100" xmlns="http://www.w3.org/2000/svg" xmlns:xlink="http://www.w3.org/1999/xlink" version="1.1"><path d="M0 3L12.3 3C24.7 3 49.3 3 74 5.3C98.7 7.7 123.3 12.3 148 13.5C172.7 14.7 197.3 12.3 221.8 9.7C246.3 7 270.7 4 295.2 5.5C319.7 7 344.3 13 369 15.5C393.7 18 418.3 17 443 14C467.7 11 492.3 6 517 5.8C541.7 5.7 566.3 10.3 591 10.8C615.7 11.3 640.3 7.7 664.8 6.5C689.3 5.3 713.7 6.7 738.2 8C762.7 9.3 787.3 10.7 812 11.2C836.7 11.7 861.3 11.3 886 12.5C910.7 13.7 935.3 16.3 947.7 17.7L960 19L960 101L947.7 101C935.3 101 910.7 101 886 101C861.3 101 836.7 101 812 101C787.3 101 762.7 101 738.2 101C713.7 101 689.3 101 664.8 101C640.3 101 615.7 101 591 101C566.3 101 541.7 101 517 101C492.3 101 467.7 101 443 101C418.3 101 393.7 101 369 101C344.3 101 319.7 101 295.2 101C270.7 101 246.3 101 221.8 101C197.3 101 172.7 101 148 101C123.3 101 98.7 101 74 101C49.3 101 24.7 101 12.3 101L0 101Z" fill="#d7d7d7"></path><path d="M0 17L12.3 18.3C24.7 19.7 49.3 22.3 74 23.5C98.7 24.7 123.3 24.3 148 24.2C172.7 24 197.3 24 221.8 24C246.3 24 270.7 24 295.2 23C319.7 22 344.3 20 369 19C393.7 18 418.3 18 443 18.8C467.7 19.7 492.3 21.3 517 21.8C541.7 22.3 566.3 21.7 591 22C615.7 22.3 640.3 23.7 664.8 23.5C689.3 23.3 713.7 21.7 738.2 22.2C762.7 22.7 787.3 25.3 812 26.3C836.7 27.3 861.3 26.7 886 26.8C910.7 27 935.3 28 947.7 28.5L960 29L960 101L947.7 101C935.3 101 910.7 101 886 101C861.3 101 836.7 101 812 101C787.3 101 762.7 101 738.2 101C713.7 101 689.3 101 664.8 101C640.3 101 615.7 101 591 101C566.3 101 541.7 101 517 101C492.3 101 467.7 101 443 101C418.3 101 393.7 101 369 101C344.3 101 319.7 101 295.2 101C270.7 101 246.3 101 221.8 101C197.3 101 172.7 101 148 101C123.3 101 98.7 101 74 101C49.3 101 24.7 101 12.3 101L0 101Z" fill="#b5b5b5"></path><path d="M0 37L12.3 36C24.7 35 49.3 33 74 33.5C98.7 34 123.3 37 148 36.2C172.7 35.3 197.3 30.7 221.8 28.3C246.3 26 270.7 26 295.2 25.7C319.7 25.3 344.3 24.7 369 26.8C393.7 29 418.3 34 443 35.5C467.7 37 492.3 35 517 33.7C541.7 32.3 566.3 31.7 591 33C615.7 34.3 640.3 37.7 664.8 39.2C689.3 40.7 713.7 40.3 738.2 39.5C762.7 38.7 787.3 37.3 812 35.7C836.7 34 861.3 32 886 32.5C910.7 33 935.3 36 947.7 37.5L960 39L960 101L947.7 101C935.3 101 910.7 101 886 101C861.3 101 836.7 101 812 101C787.3 101 762.7 101 738.2 101C713.7 101 689.3 101 664.8 101C640.3 101 615.7 101 591 101C566.3 101 541.7 101 517 101C492.3 101 467.7 101 443 101C418.3 101 393.7 101 369 101C344.3 101 319.7 101 295.2 101C270.7 101 246.3 101 221.8 101C197.3 101 172.7 101 148 101C123.3 101 98.7 101 74 101C49.3 101 24.7 101 12.3 101L0 101Z" fill="#959595"></path><path d="M0 36L12.3 37.8C24.7 39.7 49.3 43.3 74 42.8C98.7 42.3 123.3 37.7 148 38.5C172.7 39.3 197.3 45.7 221.8 45.8C246.3 46 270.7 40 295.2 38.2C319.7 36.3 344.3 38.7 369 40.3C393.7 42 418.3 43 443 43.3C467.7 43.7 492.3 43.3 517 42.2C541.7 41 566.3 39 591 39.2C615.7 39.3 640.3 41.7 664.8 44.3C689.3 47 713.7 50 738.2 50.5C762.7 51 787.3 49 812 47.8C836.7 46.7 861.3 46.3 886 44.3C910.7 42.3 935.3 38.7 947.7 36.8L960 35L960 101L947.7 101C935.3 101 910.7 101 886 101C861.3 101 836.7 101 812 101C787.3 101 762.7 101 738.2 101C713.7 101 689.3 101 664.8 101C640.3 101 615.7 101 591 101C566.3 101 541.7 101 517 101C492.3 101 467.7 101 443 101C418.3 101 393.7 101 369 101C344.3 101 319.7 101 295.2 101C270.7 101 246.3 101 221.8 101C197.3 101 172.7 101 148 101C123.3 101 98.7 101 74 101C49.3 101 24.7 101 12.3 101L0 101Z" fill="#7c7c7c"></path><path d="M0 64L12.3 62.5C24.7 61 49.3 58 74 56.8C98.7 55.7 123.3 56.3 148 57.2C172.7 58 197.3 59 221.8 57.7C246.3 56.3 270.7 52.7 295.2 52.7C319.7 52.7 344.3 56.3 369 55.8C393.7 55.3 418.3 50.7 443 50C467.7 49.3 492.3 52.7 517 55.3C541.7 58 566.3 60 591 60.8C615.7 61.7 640.3 61.3 664.8 61.5C689.3 61.7 713.7 62.3 738.2 60.5C762.7 58.7 787.3 54.3 812 52.8C836.7 51.3 861.3 52.7 886 52.8C910.7 53 935.3 52 947.7 51.5L960 51L960 101L947.7 101C935.3 101 910.7 101 886 101C861.3 101 836.7 101 812 101C787.3 101 762.7 101 738.2 101C713.7 101 689.3 101 664.8 101C640.3 101 615.7 101 591 101C566.3 101 541.7 101 517 101C492.3 101 467.7 101 443 101C418.3 101 393.7 101 369 101C344.3 101 319.7 101 295.2 101C270.7 101 246.3 101 221.8 101C197.3 101 172.7 101 148 101C123.3 101 98.7 101 74 101C49.3 101 24.7 101 12.3 101L0 101Z" fill="#7c7c7c"></path><path d="M0 71L12.3 69.5C24.7 68 49.3 65 74 63C98.7 61 123.3 60 148 61.3C172.7 62.7 197.3 66.3 221.8 65.8C246.3 65.3 270.7 60.7 295.2 60C319.7 59.3 344.3 62.7 369 65.2C393.7 67.7 418.3 69.3 443 69.3C467.7 69.3 492.3 67.7 517 66C541.7 64.3 566.3 62.7 591 61.3C615.7 60 640.3 59 664.8 58.7C689.3 58.3 713.7 58.7 738.2 61.5C762.7 64.3 787.3 69.7 812 70.5C836.7 71.3 861.3 67.7 886 65.3C910.7 63 935.3 62 947.7 61.5L960 61L960 101L947.7 101C935.3 101 910.7 101 886 101C861.3 101 836.7 101 812 101C787.3 101 762.7 101 738.2 101C713.7 101 689.3 101 664.8 101C640.3 101 615.7 101 591 101C566.3 101 541.7 101 517 101C492.3 101 467.7 101 443 101C418.3 101 393.7 101 369 101C344.3 101 319.7 101 295.2 101C270.7 101 246.3 101 221.8 101C197.3 101 172.7 101 148 101C123.3 101 98.7 101 74 101C49.3 101 24.7 101 12.3 101L0 101Z" fill="#959595"></path><path d="M0 79L12.3 77.3C24.7 75.7 49.3 72.3 74 73.3C98.7 74.3 123.3 79.7 148 79.3C172.7 79 197.3 73 221.8 71.7C246.3 70.3 270.7 73.7 295.2 75.8C319.7 78 344.3 79 369 79.7C393.7 80.3 418.3 80.7 443 80.2C467.7 79.7 492.3 78.3 517 77.3C541.7 76.3 566.3 75.7 591 76.5C615.7 77.3 640.3 79.7 664.8 81.7C689.3 83.7 713.7 85.3 738.2 85.7C762.7 86 787.3 85 812 82.7C836.7 80.3 861.3 76.7 886 73.8C910.7 71 935.3 69 947.7 68L960 67L960 101L947.7 101C935.3 101 910.7 101 886 101C861.3 101 836.7 101 812 101C787.3 101 762.7 101 738.2 101C713.7 101 689.3 101 664.8 101C640.3 101 615.7 101 591 101C566.3 101 541.7 101 517 101C492.3 101 467.7 101 443 101C418.3 101 393.7 101 369 101C344.3 101 319.7 101 295.2 101C270.7 101 246.3 101 221.8 101C197.3 101 172.7 101 148 101C123.3 101 98.7 101 74 101C49.3 101 24.7 101 12.3 101L0 101Z" fill="#b5b5b5"></path><path d="M0 86L12.3 87.2C24.7 88.3 49.3 90.7 74 91.3C98.7 92 123.3 91 148 88.8C172.7 86.7 197.3 83.3 221.8 83.5C246.3 83.7 270.7 87.3 295.2 89.3C319.7 91.3 344.3 91.7 369 92.5C393.7 93.3 418.3 94.7 443 94C467.7 93.3 492.3 90.7 517 88.5C541.7 86.3 566.3 84.7 591 83.3C615.7 82 640.3 81 664.8 81.3C689.3 81.7 713.7 83.3 738.2 85.3C762.7 87.3 787.3 89.7 812 90.2C836.7 90.7 861.3 89.3 886 90.2C910.7 91 935.3 94 947.7 95.5L960 97L960 101L947.7 101C935.3 101 910.7 101 886 101C861.3 101 836.7 101 812 101C787.3 101 762.7 101 738.2 101C713.7 101 689.3 101 664.8 101C640.3 101 615.7 101 591 101C566.3 101 541.7 101 517 101C492.3 101 467.7 101 443 101C418.3 101 393.7 101 369 101C344.3 101 319.7 101 295.2 101C270.7 101 246.3 101 221.8 101C197.3 101 172.7 101 148 101C123.3 101 98.7 101 74 101C49.3 101 24.7 101 12.3 101L0 101Z" fill="#d7d7d7"></path></svg>