<svg id="visual" viewBox="0 0 960 100" width="960" height="100" xmlns="http://www.w3.org/2000/svg" xmlns:xlink="http://www.w3.org/1999/xlink" version="1.1"><path d="M0 96L12.3 96C24.7 96 49.3 96 74 92C98.7 88 123.3 80 148 80C172.7 80 197.3 88 221.8 88.8C246.3 89.7 270.7 83.3 295.2 78.5C319.7 73.7 344.3 70.3 369 68.3C393.7 66.3 418.3 65.7 443 69.5C467.7 73.3 492.3 81.7 517 87C541.7 92.3 566.3 94.7 591 90.8C615.7 87 640.3 77 664.8 75.8C689.3 74.7 713.7 82.3 738.2 85C762.7 87.7 787.3 85.3 812 86.3C836.7 87.3 861.3 91.7 886 93.7C910.7 95.7 935.3 95.3 947.7 95.2L960 95L960 0L947.7 0C935.3 0 910.7 0 886 0C861.3 0 836.7 0 812 0C787.3 0 762.7 0 738.2 0C713.7 0 689.3 0 664.8 0C640.3 0 615.7 0 591 0C566.3 0 541.7 0 517 0C492.3 0 467.7 0 443 0C418.3 0 393.7 0 369 0C344.3 0 319.7 0 295.2 0C270.7 0 246.3 0 221.8 0C197.3 0 172.7 0 148 0C123.3 0 98.7 0 74 0C49.3 0 24.7 0 12.3 0L0 0Z" fill="#d7d7d7"></path><path d="M0 57L12.3 56.7C24.7 56.3 49.3 55.7 74 55.3C98.7 55 123.3 55 148 59.2C172.7 63.3 197.3 71.7 221.8 73.5C246.3 75.3 270.7 70.7 295.2 67.5C319.7 64.3 344.3 62.7 369 65.3C393.7 68 418.3 75 443 75.3C467.7 75.7 492.3 69.3 517 65C541.7 60.7 566.3 58.3 591 57.8C615.7 57.3 640.3 58.7 664.8 62.2C689.3 65.7 713.7 71.3 738.2 74.2C762.7 77 787.3 77 812 75.2C836.7 73.3 861.3 69.7 886 66.5C910.7 63.3 935.3 60.7 947.7 59.3L960 58L960 0L947.7 0C935.3 0 910.7 0 886 0C861.3 0 836.7 0 812 0C787.3 0 762.7 0 738.2 0C713.7 0 689.3 0 664.8 0C640.3 0 615.7 0 591 0C566.3 0 541.7 0 517 0C492.3 0 467.7 0 443 0C418.3 0 393.7 0 369 0C344.3 0 319.7 0 295.2 0C270.7 0 246.3 0 221.8 0C197.3 0 172.7 0 148 0C123.3 0 98.7 0 74 0C49.3 0 24.7 0 12.3 0L0 0Z" fill="#cbcbcb"></path><path d="M0 53L12.3 53.7C24.7 54.3 49.3 55.7 74 57.5C98.7 59.3 123.3 61.7 148 63.3C172.7 65 197.3 66 221.8 66.7C246.3 67.3 270.7 67.7 295.2 64.5C319.7 61.3 344.3 54.7 369 52.8C393.7 51 418.3 54 443 53.8C467.7 53.7 492.3 50.3 517 50.7C541.7 51 566.3 55 591 54.5C615.7 54 640.3 49 664.8 45.8C689.3 42.7 713.7 41.3 738.2 43.7C762.7 46 787.3 52 812 54.2C836.7 56.3 861.3 54.7 886 52.2C910.7 49.7 935.3 46.3 947.7 44.7L960 43L960 0L947.7 0C935.3 0 910.7 0 886 0C861.3 0 836.7 0 812 0C787.3 0 762.7 0 738.2 0C713.7 0 689.3 0 664.8 0C640.3 0 615.7 0 591 0C566.3 0 541.7 0 517 0C492.3 0 467.7 0 443 0C418.3 0 393.7 0 369 0C344.3 0 319.7 0 295.2 0C270.7 0 246.3 0 221.8 0C197.3 0 172.7 0 148 0C123.3 0 98.7 0 74 0C49.3 0 24.7 0 12.3 0L0 0Z" fill="#c0c0c0"></path><path d="M0 32L12.3 33.5C24.7 35 49.3 38 74 39.3C98.7 40.7 123.3 40.3 148 38.3C172.7 36.3 197.3 32.7 221.8 34.3C246.3 36 270.7 43 295.2 45.3C319.7 47.7 344.3 45.3 369 45.7C393.7 46 418.3 49 443 48.8C467.7 48.7 492.3 45.3 517 44.5C541.7 43.7 566.3 45.3 591 44.2C615.7 43 640.3 39 664.8 39C689.3 39 713.7 43 738.2 43.8C762.7 44.7 787.3 42.3 812 43.3C836.7 44.3 861.3 48.7 886 51C910.7 53.3 935.3 53.7 947.7 53.8L960 54L960 0L947.7 0C935.3 0 910.7 0 886 0C861.3 0 836.7 0 812 0C787.3 0 762.7 0 738.2 0C713.7 0 689.3 0 664.8 0C640.3 0 615.7 0 591 0C566.3 0 541.7 0 517 0C492.3 0 467.7 0 443 0C418.3 0 393.7 0 369 0C344.3 0 319.7 0 295.2 0C270.7 0 246.3 0 221.8 0C197.3 0 172.7 0 148 0C123.3 0 98.7 0 74 0C49.3 0 24.7 0 12.3 0L0 0Z" fill="#c0c0c0"></path><path d="M0 28L12.3 27.2C24.7 26.3 49.3 24.7 74 25C98.7 25.3 123.3 27.7 148 28C172.7 28.3 197.3 26.7 221.8 28C246.3 29.3 270.7 33.7 295.2 35C319.7 36.3 344.3 34.7 369 30.8C393.7 27 418.3 21 443 21.2C467.7 21.3 492.3 27.7 517 28.5C541.7 29.3 566.3 24.7 591 21.7C615.7 18.7 640.3 17.3 664.8 19.5C689.3 21.7 713.7 27.3 738.2 29.2C762.7 31 787.3 29 812 25.8C836.7 22.7 861.3 18.3 886 17.5C910.7 16.7 935.3 19.3 947.7 20.7L960 22L960 0L947.7 0C935.3 0 910.7 0 886 0C861.3 0 836.7 0 812 0C787.3 0 762.7 0 738.2 0C713.7 0 689.3 0 664.8 0C640.3 0 615.7 0 591 0C566.3 0 541.7 0 517 0C492.3 0 467.7 0 443 0C418.3 0 393.7 0 369 0C344.3 0 319.7 0 295.2 0C270.7 0 246.3 0 221.8 0C197.3 0 172.7 0 148 0C123.3 0 98.7 0 74 0C49.3 0 24.7 0 12.3 0L0 0Z" fill="#cbcbcb"></path><path d="M0 17L12.3 16.5C24.7 16 49.3 15 74 13.2C98.7 11.3 123.3 8.7 148 10C172.7 11.3 197.3 16.7 221.8 16C246.3 15.3 270.7 8.7 295.2 8.5C319.7 8.3 344.3 14.7 369 15.8C393.7 17 418.3 13 443 10.8C467.7 8.7 492.3 8.3 517 9C541.7 9.7 566.3 11.3 591 11.8C615.7 12.3 640.3 11.7 664.8 13C689.3 14.3 713.7 17.7 738.2 17.3C762.7 17 787.3 13 812 12.5C836.7 12 861.3 15 886 14C910.7 13 935.3 8 947.7 5.5L960 3L960 0L947.7 0C935.3 0 910.7 0 886 0C861.3 0 836.7 0 812 0C787.3 0 762.7 0 738.2 0C713.7 0 689.3 0 664.8 0C640.3 0 615.7 0 591 0C566.3 0 541.7 0 517 0C492.3 0 467.7 0 443 0C418.3 0 393.7 0 369 0C344.3 0 319.7 0 295.2 0C270.7 0 246.3 0 221.8 0C197.3 0 172.7 0 148 0C123.3 0 98.7 0 74 0C49.3 0 24.7 0 12.3 0L0 0Z" fill="#d7d7d7"></path></svg>