<svg id="visual" viewBox="0 0 960 100" width="960" height="100" xmlns="http://www.w3.org/2000/svg" xmlns:xlink="http://www.w3.org/1999/xlink" version="1.1"><path d="M0 85L12.3 86.8C24.7 88.7 49.3 92.3 74 91.8C98.7 91.3 123.3 86.7 148 85.2C172.7 83.7 197.3 85.3 221.8 86.3C246.3 87.3 270.7 87.7 295.2 86.8C319.7 86 344.3 84 369 81.8C393.7 79.7 418.3 77.3 443 78.5C467.7 79.7 492.3 84.3 517 87.7C541.7 91 566.3 93 591 91C615.7 89 640.3 83 664.8 79.7C689.3 76.3 713.7 75.7 738.2 76.8C762.7 78 787.3 81 812 82.8C836.7 84.7 861.3 85.3 886 83.8C910.7 82.3 935.3 78.7 947.7 76.8L960 75L960 0L947.7 0C935.3 0 910.7 0 886 0C861.3 0 836.7 0 812 0C787.3 0 762.7 0 738.2 0C713.7 0 689.3 0 664.8 0C640.3 0 615.7 0 591 0C566.3 0 541.7 0 517 0C492.3 0 467.7 0 443 0C418.3 0 393.7 0 369 0C344.3 0 319.7 0 295.2 0C270.7 0 246.3 0 221.8 0C197.3 0 172.7 0 148 0C123.3 0 98.7 0 74 0C49.3 0 24.7 0 12.3 0L0 0Z" fill="#d7d7d7"></path><path d="M0 81L12.3 79.2C24.7 77.3 49.3 73.7 74 71.8C98.7 70 123.3 70 148 70.2C172.7 70.3 197.3 70.7 221.8 71.7C246.3 72.7 270.7 74.3 295.2 74.8C319.7 75.3 344.3 74.7 369 75.5C393.7 76.3 418.3 78.7 443 77C467.7 75.3 492.3 69.7 517 65.8C541.7 62 566.3 60 591 60C615.7 60 640.3 62 664.8 62C689.3 62 713.7 60 738.2 63C762.7 66 787.3 74 812 76.8C836.7 79.7 861.3 77.3 886 74.7C910.7 72 935.3 69 947.7 67.5L960 66L960 0L947.7 0C935.3 0 910.7 0 886 0C861.3 0 836.7 0 812 0C787.3 0 762.7 0 738.2 0C713.7 0 689.3 0 664.8 0C640.3 0 615.7 0 591 0C566.3 0 541.7 0 517 0C492.3 0 467.7 0 443 0C418.3 0 393.7 0 369 0C344.3 0 319.7 0 295.2 0C270.7 0 246.3 0 221.8 0C197.3 0 172.7 0 148 0C123.3 0 98.7 0 74 0C49.3 0 24.7 0 12.3 0L0 0Z" fill="#cbcbcb"></path><path d="M0 47L12.3 46.7C24.7 46.3 49.3 45.7 74 48.3C98.7 51 123.3 57 148 57.2C172.7 57.3 197.3 51.7 221.8 49.8C246.3 48 270.7 50 295.2 50.5C319.7 51 344.3 50 369 50.5C393.7 51 418.3 53 443 55.5C467.7 58 492.3 61 517 60.2C541.7 59.3 566.3 54.7 591 53.2C615.7 51.7 640.3 53.3 664.8 53.7C689.3 54 713.7 53 738.2 55C762.7 57 787.3 62 812 64.7C836.7 67.3 861.3 67.7 886 64C910.7 60.3 935.3 52.7 947.7 48.8L960 45L960 0L947.7 0C935.3 0 910.7 0 886 0C861.3 0 836.7 0 812 0C787.3 0 762.7 0 738.2 0C713.7 0 689.3 0 664.8 0C640.3 0 615.7 0 591 0C566.3 0 541.7 0 517 0C492.3 0 467.7 0 443 0C418.3 0 393.7 0 369 0C344.3 0 319.7 0 295.2 0C270.7 0 246.3 0 221.8 0C197.3 0 172.7 0 148 0C123.3 0 98.7 0 74 0C49.3 0 24.7 0 12.3 0L0 0Z" fill="#c0c0c0"></path><path d="M0 30L12.3 29.8C24.7 29.7 49.3 29.3 74 30.7C98.7 32 123.3 35 148 37.8C172.7 40.7 197.3 43.3 221.8 45C246.3 46.7 270.7 47.3 295.2 46.7C319.7 46 344.3 44 369 43C393.7 42 418.3 42 443 41.8C467.7 41.7 492.3 41.3 517 41.2C541.7 41 566.3 41 591 40.5C615.7 40 640.3 39 664.8 38C689.3 37 713.7 36 738.2 37.8C762.7 39.7 787.3 44.3 812 45.7C836.7 47 861.3 45 886 44.7C910.7 44.3 935.3 45.7 947.7 46.3L960 47L960 0L947.7 0C935.3 0 910.7 0 886 0C861.3 0 836.7 0 812 0C787.3 0 762.7 0 738.2 0C713.7 0 689.3 0 664.8 0C640.3 0 615.7 0 591 0C566.3 0 541.7 0 517 0C492.3 0 467.7 0 443 0C418.3 0 393.7 0 369 0C344.3 0 319.7 0 295.2 0C270.7 0 246.3 0 221.8 0C197.3 0 172.7 0 148 0C123.3 0 98.7 0 74 0C49.3 0 24.7 0 12.3 0L0 0Z" fill="#c0c0c0"></path><path d="M0 18L12.3 20.8C24.7 23.7 49.3 29.3 74 30.2C98.7 31 123.3 27 148 26C172.7 25 197.3 27 221.8 28.3C246.3 29.7 270.7 30.3 295.2 31.3C319.7 32.3 344.3 33.7 369 32C393.7 30.3 418.3 25.7 443 26.3C467.7 27 492.3 33 517 34.3C541.7 35.7 566.3 32.3 591 32C615.7 31.7 640.3 34.3 664.8 34.7C689.3 35 713.7 33 738.2 33.2C762.7 33.3 787.3 35.7 812 34C836.7 32.3 861.3 26.7 886 23.7C910.7 20.7 935.3 20.3 947.7 20.2L960 20L960 0L947.7 0C935.3 0 910.7 0 886 0C861.3 0 836.7 0 812 0C787.3 0 762.7 0 738.2 0C713.7 0 689.3 0 664.8 0C640.3 0 615.7 0 591 0C566.3 0 541.7 0 517 0C492.3 0 467.7 0 443 0C418.3 0 393.7 0 369 0C344.3 0 319.7 0 295.2 0C270.7 0 246.3 0 221.8 0C197.3 0 172.7 0 148 0C123.3 0 98.7 0 74 0C49.3 0 24.7 0 12.3 0L0 0Z" fill="#cbcbcb"></path><path d="M0 9L12.3 9.3C24.7 9.7 49.3 10.3 74 11.2C98.7 12 123.3 13 148 14.8C172.7 16.7 197.3 19.3 221.8 19C246.3 18.7 270.7 15.3 295.2 13.5C319.7 11.7 344.3 11.3 369 10.3C393.7 9.3 418.3 7.7 443 6C467.7 4.3 492.3 2.7 517 5.2C541.7 7.7 566.3 14.3 591 18.2C615.7 22 640.3 23 664.8 23.7C689.3 24.3 713.7 24.7 738.2 23.2C762.7 21.7 787.3 18.3 812 17.2C836.7 16 861.3 17 886 17C910.7 17 935.3 16 947.7 15.5L960 15L960 0L947.7 0C935.3 0 910.7 0 886 0C861.3 0 836.7 0 812 0C787.3 0 762.7 0 738.2 0C713.7 0 689.3 0 664.8 0C640.3 0 615.7 0 591 0C566.3 0 541.7 0 517 0C492.3 0 467.7 0 443 0C418.3 0 393.7 0 369 0C344.3 0 319.7 0 295.2 0C270.7 0 246.3 0 221.8 0C197.3 0 172.7 0 148 0C123.3 0 98.7 0 74 0C49.3 0 24.7 0 12.3 0L0 0Z" fill="#d7d7d7"></path></svg>